<?xml version="1.0" encoding="utf-8"?>
<!-- Generator: Adobe Illustrator 16.0.0, SVG Export Plug-In . SVG Version: 6.00 Build 0)  -->
<!DOCTYPE svg PUBLIC "-//W3C//DTD SVG 1.1//EN" "http://www.w3.org/Graphics/SVG/1.1/DTD/svg11.dtd">
<svg version="1.1" id="Layer_1" xmlns="http://www.w3.org/2000/svg" xmlns:xlink="http://www.w3.org/1999/xlink" x="0px" y="0px"
	 width="118.544px" height="44.167px" viewBox="0 0 118.544 44.167" enable-background="new 0 0 118.544 44.167"
	 xml:space="preserve">
<g>
	
		<polygon display="none" fill-rule="evenodd" clip-rule="evenodd" stroke="#FFFFFF" stroke-width="0.0092" stroke-miterlimit="22.9256" points="
		60.932,4.231 -29.46,4.231 -29.46,94.623 60.932,94.623 60.932,4.231 	"/>
	<path fill="#FFFFFF" stroke="#000000" stroke-width="0.0144" stroke-miterlimit="22.9256" d="M42.614,12.258h5.545
		c3.287,0,4.932,1.294,4.932,3.878c0,1.283-0.56,2.351-1.688,3.197c1.63,0.711,2.446,1.975,2.446,3.795
		c0,1.394-0.48,2.502-1.442,3.331c-0.469,0.393-0.972,0.668-1.506,0.824c-0.539,0.157-1.26,0.238-2.168,0.238H47.87v-3.924h0.77
		c0.455,0,0.775-0.057,0.961-0.172c0.188-0.118,0.279-0.32,0.279-0.611c0-0.492-0.377-0.739-1.137-0.739H47.87v-4.068
		c0.835,0,1.251-0.291,1.251-0.863c0-0.53-0.378-0.795-1.13-0.795h-0.838v11.172h-4.539V12.258L42.614,12.258z M61.565,23.338v4.327
		c-0.343,0.061-0.657,0.092-0.939,0.092c-1.673,0-3.076-0.554-4.193-1.657c-1.118-1.103-1.676-2.483-1.676-4.147
		c0-1.619,0.565-2.989,1.695-4.114c1.129-1.126,2.504-1.692,4.121-1.692c1.802,0,3.227,0.528,4.263,1.584
		c1.043,1.055,1.562,2.496,1.562,4.321v5.47h-4.184v-5.167c0-0.588-0.145-1.059-0.431-1.409c-0.286-0.351-0.671-0.526-1.157-0.526
		c-0.437,0-0.82,0.159-1.141,0.48c-0.319,0.32-0.479,0.703-0.479,1.141c0,0.466,0.144,0.843,0.434,1.146
		c0.291,0.297,0.661,0.446,1.109,0.446C60.914,23.631,61.253,23.532,61.565,23.338L61.565,23.338z M74.951,16.261v4.475
		c-0.291-0.165-0.559-0.246-0.795-0.246c-0.76,0-1.141,0.58-1.141,1.742v5.289h-4.183v-6.096c0-1.607,0.439-2.892,1.32-3.851
		c0.878-0.958,2.054-1.435,3.522-1.435C74.005,16.14,74.427,16.181,74.951,16.261L74.951,16.261z M80.362,16.373v11.148h-4.184
		V16.373H80.362L80.362,16.373z M78.283,11.396c0.565,0,1.056,0.197,1.469,0.599c0.416,0.397,0.623,0.869,0.623,1.411
		c0,0.584-0.196,1.062-0.588,1.433c-0.39,0.372-0.893,0.559-1.503,0.559c-0.611,0-1.114-0.188-1.505-0.559
		c-0.393-0.372-0.586-0.849-0.586-1.433c0-0.542,0.205-1.014,0.621-1.411C77.226,11.594,77.717,11.396,78.283,11.396L78.283,11.396z
		 M89.809,16.529v4.403c-0.589,0-0.993,0.11-1.215,0.331c-0.218,0.22-0.36,0.653-0.419,1.303c-0.192,2.156-1.027,3.675-2.504,4.561
		c-0.783,0.463-1.893,0.695-3.332,0.695h-0.58v-4.429h0.19c0.672,0,1.149-0.14,1.437-0.419c0.285-0.279,0.453-0.77,0.498-1.469
		c0.058-1.142,0.165-1.942,0.318-2.403c0.153-0.462,0.464-0.92,0.935-1.378c0.817-0.798,1.954-1.194,3.409-1.194H89.809
		L89.809,16.529z M94.895,12.258v4.271h1.879v4.415h-1.879c0,0.886,0.142,1.501,0.421,1.835c0.278,0.334,0.793,0.5,1.536,0.5v4.397
		c-0.215,0.008-0.376,0.011-0.48,0.011c-0.946,0-1.839-0.222-2.679-0.66c-0.838-0.439-1.51-1.034-2.018-1.79
		c-0.641-0.962-0.963-2.237-0.963-3.825v-9.155H94.895L94.895,12.258z M105.024,23.338v4.327c-0.343,0.061-0.656,0.092-0.939,0.092
		c-1.675,0-3.076-0.554-4.194-1.657c-1.119-1.103-1.675-2.483-1.675-4.147c0-1.619,0.564-2.989,1.693-4.114
		c1.129-1.126,2.506-1.692,4.122-1.692c1.802,0,3.226,0.528,4.263,1.584c1.042,1.055,1.561,2.496,1.561,4.321v5.47h-4.184v-5.167
		c0-0.588-0.144-1.059-0.431-1.409c-0.286-0.351-0.672-0.526-1.156-0.526c-0.438,0-0.82,0.159-1.141,0.48
		c-0.321,0.32-0.481,0.703-0.481,1.141c0,0.466,0.144,0.843,0.435,1.146c0.29,0.297,0.661,0.446,1.107,0.446
		C104.372,23.631,104.71,23.532,105.024,23.338L105.024,23.338z"/>
	<path fill="#FFFFFF" stroke="#000000" stroke-width="0.0144" stroke-miterlimit="22.9256" d="M39.812,35.686l2.331,0.06
		c-0.154,1.207-0.573,2.137-1.253,2.795c-0.681,0.656-1.568,0.984-2.664,0.984c-1.115,0-2.048-0.373-2.798-1.119
		c-0.749-0.748-1.125-1.673-1.125-2.78c0-1.113,0.384-2.052,1.149-2.812c0.764-0.759,1.707-1.139,2.83-1.139
		c1.101,0,2.023,0.371,2.761,1.117c0.51,0.517,0.873,1.233,1.085,2.152l-2.387,0.16c-0.264-0.816-0.771-1.226-1.515-1.226
		c-0.474,0-0.866,0.163-1.174,0.492c-0.31,0.328-0.463,0.748-0.463,1.255c0,0.489,0.149,0.894,0.455,1.213
		c0.303,0.321,0.686,0.479,1.149,0.479c0.47,0,0.847-0.14,1.125-0.422C39.597,36.615,39.763,36.211,39.812,35.686L39.812,35.686z
		 M45.632,33.764c0.773,0,1.437,0.278,1.99,0.837c0.552,0.556,0.832,1.223,0.832,2.002c0,0.788-0.281,1.46-0.842,2.015
		c-0.56,0.555-1.235,0.833-2.029,0.833s-1.469-0.278-2.032-0.836c-0.564-0.556-0.843-1.229-0.843-2.012
		c0-0.8,0.279-1.474,0.843-2.02C44.113,34.037,44.806,33.764,45.632,33.764L45.632,33.764z M45.577,35.786
		c-0.22,0-0.406,0.078-0.56,0.236c-0.153,0.158-0.23,0.354-0.23,0.583s0.079,0.421,0.234,0.582c0.155,0.16,0.341,0.24,0.556,0.24
		c0.219,0,0.405-0.081,0.562-0.24c0.154-0.161,0.232-0.353,0.232-0.582s-0.076-0.425-0.231-0.583
		C45.988,35.864,45.799,35.786,45.577,35.786L45.577,35.786z M52.269,35.09v2.145h-0.913v2.104h-2.049V34.7
		c0-0.522,0.089-0.967,0.269-1.335c0.227-0.472,0.571-0.856,1.032-1.154c0.462-0.297,0.941-0.447,1.443-0.447l0.218,0.007v2.149
		c-0.046-0.008-0.081-0.011-0.103-0.011c-0.258,0-0.459,0.087-0.599,0.259s-0.211,0.417-0.211,0.736v0.187H52.269L52.269,35.09z
		 M56.131,35.09v2.145h-0.916v2.104h-2.049V34.7c0-0.522,0.091-0.967,0.27-1.335c0.226-0.472,0.571-0.856,1.031-1.154
		c0.462-0.297,0.944-0.447,1.444-0.447l0.219,0.007v2.149c-0.047-0.008-0.083-0.011-0.106-0.011c-0.258,0-0.459,0.087-0.597,0.259
		c-0.142,0.172-0.213,0.417-0.213,0.736v0.187H56.131L56.131,35.09z M62.396,36.941h-3.105c-0.047-0.157-0.073-0.302-0.073-0.436
		c0-0.181,0.034-0.359,0.1-0.536h1.042c-0.074-0.405-0.303-0.607-0.687-0.607c-0.256,0-0.462,0.107-0.625,0.325
		c-0.161,0.219-0.241,0.498-0.241,0.835c0,0.355,0.08,0.642,0.235,0.861c0.153,0.218,0.358,0.328,0.609,0.328
		c0.206,0,0.401-0.103,0.593-0.305l1.167,1.401c-0.545,0.43-1.148,0.642-1.813,0.642c-0.811,0-1.494-0.273-2.045-0.817
		c-0.551-0.544-0.826-1.218-0.826-2.021c0-0.799,0.279-1.477,0.836-2.027c0.557-0.552,1.239-0.827,2.05-0.827
		c0.794,0,1.458,0.269,1.998,0.808c0.539,0.539,0.807,1.201,0.807,1.992C62.417,36.638,62.411,36.765,62.396,36.941L62.396,36.941z
		 M68.611,36.941h-3.105c-0.047-0.157-0.07-0.302-0.07-0.436c0-0.181,0.034-0.359,0.1-0.536h1.041
		c-0.072-0.405-0.302-0.607-0.685-0.607c-0.257,0-0.464,0.107-0.625,0.325c-0.161,0.219-0.242,0.498-0.242,0.835
		c0,0.355,0.079,0.642,0.233,0.861c0.154,0.218,0.359,0.328,0.61,0.328c0.206,0,0.403-0.103,0.593-0.305l1.167,1.401
		c-0.544,0.43-1.148,0.642-1.814,0.642c-0.81,0-1.491-0.273-2.043-0.817c-0.55-0.544-0.826-1.218-0.826-2.021
		c0-0.799,0.278-1.477,0.835-2.027c0.557-0.552,1.241-0.827,2.051-0.827c0.794,0,1.46,0.269,1.998,0.808
		c0.539,0.539,0.807,1.201,0.807,1.992C68.634,36.638,68.628,36.765,68.611,36.941L68.611,36.941z M75.3,37.29v2.12
		c-0.168,0.029-0.321,0.045-0.461,0.045c-0.819,0-1.505-0.271-2.053-0.811c-0.547-0.541-0.82-1.217-0.82-2.032
		c0-0.794,0.275-1.465,0.83-2.016c0.553-0.552,1.226-0.828,2.019-0.828c0.883,0,1.581,0.258,2.089,0.774
		c0.508,0.516,0.764,1.223,0.764,2.116v2.68h-2.05v-2.531c0-0.288-0.071-0.517-0.209-0.689c-0.142-0.172-0.33-0.257-0.569-0.257
		c-0.215,0-0.4,0.076-0.558,0.235c-0.157,0.157-0.235,0.344-0.235,0.557c0,0.229,0.071,0.415,0.214,0.561
		c0.141,0.146,0.321,0.219,0.542,0.219C74.98,37.434,75.146,37.386,75.3,37.29L75.3,37.29z M83.73,39.339h-2.05v-3.083
		c0-0.313-0.13-0.47-0.389-0.47c-0.255,0-0.383,0.157-0.383,0.47v3.083h-2.048v-3.045c0-0.712,0.235-1.31,0.705-1.799
		c0.471-0.486,1.05-0.73,1.732-0.73c0.782,0,1.409,0.284,1.878,0.85c0.369,0.441,0.554,1.057,0.554,1.845V39.339L83.73,39.339z
		 M88.286,31.863h2.049v4.549c0,0.837-0.217,1.52-0.657,2.047c-0.251,0.303-0.572,0.546-0.963,0.722
		c-0.387,0.179-0.786,0.27-1.195,0.27c-0.816,0-1.502-0.275-2.061-0.822c-0.559-0.55-0.839-1.22-0.839-2.016
		c0-0.771,0.278-1.439,0.833-2.001c0.555-0.562,1.213-0.842,1.973-0.842c0.119,0,0.302,0.01,0.548,0.033v2.256
		c-0.168-0.132-0.337-0.196-0.505-0.196c-0.211,0-0.393,0.076-0.544,0.232c-0.15,0.157-0.227,0.343-0.227,0.56
		c0,0.214,0.078,0.396,0.234,0.548c0.159,0.15,0.347,0.227,0.566,0.227c0.525,0,0.788-0.364,0.788-1.091V31.863L88.286,31.863z
		 M101.713,39.339h-2.049v-2.945c0-0.229-0.024-0.387-0.07-0.475c-0.048-0.087-0.134-0.13-0.259-0.13
		c-0.231,0-0.345,0.203-0.345,0.61v2.94h-2.049v-2.945c0-0.229-0.024-0.387-0.075-0.475c-0.047-0.087-0.135-0.13-0.259-0.13
		c-0.226,0-0.339,0.203-0.339,0.61v2.94h-2.048v-3.363c0-0.613,0.206-1.136,0.619-1.564c0.412-0.428,0.914-0.643,1.501-0.643
		c0.607,0,1.15,0.255,1.632,0.768c0.537-0.513,1.074-0.768,1.61-0.768c0.685,0,1.232,0.248,1.644,0.746
		c0.326,0.386,0.488,0.951,0.488,1.691V39.339L101.713,39.339z M105.502,33.764c0.776,0,1.439,0.278,1.991,0.837
		c0.553,0.556,0.831,1.223,0.831,2.002c0,0.788-0.281,1.46-0.842,2.015c-0.558,0.555-1.236,0.833-2.027,0.833
		c-0.793,0-1.47-0.278-2.034-0.836c-0.561-0.556-0.84-1.229-0.84-2.012c0-0.8,0.279-1.474,0.84-2.02
		C103.984,34.037,104.679,33.764,105.502,33.764L105.502,33.764z M105.447,35.786c-0.218,0-0.406,0.078-0.557,0.236
		c-0.154,0.158-0.231,0.354-0.231,0.583s0.08,0.421,0.235,0.582c0.155,0.16,0.339,0.24,0.553,0.24c0.221,0,0.408-0.081,0.562-0.24
		c0.156-0.161,0.235-0.353,0.235-0.582s-0.078-0.425-0.231-0.583C105.86,35.864,105.671,35.786,105.447,35.786L105.447,35.786z
		 M112.176,33.825v2.189c-0.143-0.08-0.274-0.119-0.389-0.119c-0.372,0-0.56,0.283-0.56,0.853v2.591h-2.048v-2.984
		c0-0.789,0.214-1.418,0.647-1.887c0.43-0.468,1.006-0.704,1.726-0.704C111.712,33.764,111.921,33.786,112.176,33.825
		L112.176,33.825z M118.145,36.941h-3.104c-0.048-0.157-0.071-0.302-0.071-0.436c0-0.181,0.034-0.359,0.101-0.536h1.04
		c-0.072-0.405-0.302-0.607-0.687-0.607c-0.255,0-0.464,0.107-0.624,0.325c-0.161,0.219-0.241,0.498-0.241,0.835
		c0,0.355,0.078,0.642,0.233,0.861c0.156,0.218,0.36,0.328,0.609,0.328c0.206,0,0.401-0.103,0.592-0.305l1.167,1.401
		c-0.544,0.43-1.147,0.642-1.814,0.642c-0.81,0-1.49-0.273-2.043-0.817c-0.552-0.544-0.827-1.218-0.827-2.021
		c0-0.799,0.28-1.477,0.836-2.027c0.558-0.552,1.24-0.827,2.052-0.827c0.792,0,1.458,0.269,1.996,0.808
		c0.539,0.539,0.809,1.201,0.809,1.992C118.168,36.638,118.161,36.765,118.145,36.941L118.145,36.941z"/>
	
		<path fill-rule="evenodd" clip-rule="evenodd" fill="#FF6600" stroke="#000000" stroke-width="0.0092" stroke-miterlimit="22.9256" d="
		M-19.226,87.85c-0.577,0.588-1.486,3.297,1.431,2.134c7.988-2.698,22.47-12.603,67.185-9.932c2.202,0.247,1.823-1.375,1.393-2.085
		C47.693,72.54,5.698,56.408-19.226,87.85L-19.226,87.85z"/>
	
		<path fill-rule="evenodd" clip-rule="evenodd" fill="#FF6600" stroke="#000000" stroke-width="0.0092" stroke-miterlimit="22.9256" d="
		M4.461,30.031c-0.534-0.795-1.599-3.973,1.307-3.249c8.134,2.424,10.004,3.134,18.989-0.254c3.709-1.358,3.598,2.356,3.57,2.791
		C28.176,36.026,11.14,42.27,4.461,30.031L4.461,30.031z"/>
	
		<path fill-rule="evenodd" clip-rule="evenodd" fill="#FFFFFF" stroke="#000000" stroke-width="0.0092" stroke-miterlimit="22.9256" d="
		M1.455,37.381c-0.586-0.734-1.336-3.303,0.899-2.44c6.146,4.175,18.799,4.552,26.902,1.292c4.674-1.889,2.489,1.881,2.542,1.836
		C29.212,42.999,9.297,48.421,1.455,37.381L1.455,37.381z"/>
	
		<path fill-rule="evenodd" clip-rule="evenodd" fill="#FFFFFF" stroke="#000000" stroke-width="0.0092" stroke-miterlimit="22.9256" d="
		M15.202,27.96c-0.436,0.197-1.456,0.872-1.39,0.017c1.716-2.934,0.154-4.975-4.042-7.882c-1.738-0.938,0.643-0.658,1.197-0.642
		C16.488,20.415,21.162,24.095,15.202,27.96L15.202,27.96z"/>
	
		<path fill-rule="evenodd" clip-rule="evenodd" fill="#FFFFFF" stroke="#000000" stroke-width="0.0092" stroke-miterlimit="22.9256" d="
		M20.192,26.02c-0.102,0.298-0.342,1.416,0.99,0.702c1.136-0.636,4.917-3.324,4.136-5.76c-0.426-2.489-4.634-3.653-8.042-4.554
		c-3.409-0.9-4.243-2.039-4.385-3.787c-0.143-1.748,2.317-4.514,6.081-3.295c1.107,0.367,0.91-0.127,0.903-0.157
		c-0.18-0.326-0.676-0.882-2.971-0.917c-2.699-0.106-7.439,1.828-7.369,5.747c0.072,3.919,4.243,5.454,6.055,5.892
		c1.491,0.477,5.307,1.55,5.166,4.025C20.769,25.519,20.396,25.434,20.192,26.02L20.192,26.02z"/>
</g>
</svg>
