<?xml version="1.0" encoding="utf-8"?>
<!-- Generator: Adobe Illustrator 16.0.0, SVG Export Plug-In . SVG Version: 6.00 Build 0)  -->
<!DOCTYPE svg PUBLIC "-//W3C//DTD SVG 1.1//EN" "http://www.w3.org/Graphics/SVG/1.1/DTD/svg11.dtd">
<svg version="1.1" id="Layer_1" xmlns="http://www.w3.org/2000/svg" xmlns:xlink="http://www.w3.org/1999/xlink" x="0px" y="0px"
	 width="31.418px" height="35.588px" viewBox="0 0 31.418 35.588" enable-background="new 0 0 31.418 35.588" xml:space="preserve">
<g>
	
		<polygon display="none" fill-rule="evenodd" clip-rule="evenodd" stroke="#FFFFFF" stroke-width="0.0092" stroke-miterlimit="22.9256" points="
		60.086,-4.02 -30.306,-4.02 -30.306,86.373 60.086,86.373 60.086,-4.02 	"/>
	<path fill="#FFFFFF" stroke="#000000" stroke-width="0.0092" stroke-miterlimit="22.9256" d="M-4.627,37.942h3.528
		c2.091,0,3.138,0.823,3.138,2.467c0,0.817-0.356,1.496-1.074,2.035c1.037,0.453,1.556,1.257,1.556,2.415
		c0,0.887-0.306,1.592-0.917,2.12c-0.298,0.25-0.619,0.425-0.958,0.524c-0.343,0.1-0.802,0.151-1.38,0.151h-0.548v-2.497h0.49
		c0.289,0,0.493-0.036,0.612-0.109c0.119-0.075,0.177-0.204,0.177-0.389c0-0.313-0.24-0.471-0.723-0.471h-0.556v-2.589
		c0.531,0,0.796-0.185,0.796-0.549c0-0.337-0.24-0.506-0.719-0.506h-0.533v7.109h-2.888V37.942L-4.627,37.942z M7.432,44.992v2.753
		c-0.218,0.039-0.418,0.059-0.598,0.059c-1.065,0-1.957-0.353-2.668-1.055C3.455,46.048,3.1,45.169,3.1,44.11
		c0-1.03,0.359-1.902,1.079-2.618c0.719-0.717,1.594-1.077,2.622-1.077c1.146,0,2.053,0.336,2.713,1.008
		c0.664,0.671,0.994,1.588,0.994,2.75v3.48H7.845v-3.288c0-0.374-0.092-0.673-0.274-0.896c-0.182-0.223-0.427-0.335-0.736-0.335
		c-0.278,0-0.521,0.101-0.726,0.306c-0.203,0.204-0.305,0.447-0.305,0.726c0,0.296,0.092,0.536,0.276,0.729
		c0.185,0.189,0.42,0.284,0.706,0.284C7.017,45.179,7.233,45.116,7.432,44.992L7.432,44.992z M15.95,40.489v2.848
		c-0.185-0.105-0.355-0.157-0.506-0.157c-0.483,0-0.726,0.369-0.726,1.108v3.366h-2.662v-3.879c0-1.022,0.279-1.84,0.84-2.45
		c0.559-0.609,1.307-0.913,2.241-0.913C15.348,40.412,15.616,40.438,15.95,40.489L15.95,40.489z M19.393,40.56v7.094h-2.662V40.56
		H19.393L19.393,40.56z M18.07,37.394c0.359,0,0.672,0.125,0.935,0.381c0.265,0.252,0.396,0.553,0.396,0.897
		c0,0.372-0.125,0.676-0.374,0.912c-0.248,0.236-0.568,0.355-0.957,0.355c-0.389,0-0.709-0.119-0.958-0.355
		c-0.25-0.236-0.373-0.541-0.373-0.912c0-0.345,0.13-0.645,0.396-0.897C17.397,37.519,17.709,37.394,18.07,37.394L18.07,37.394z
		 M25.404,40.66v2.802c-0.375,0-0.632,0.07-0.773,0.21c-0.139,0.14-0.229,0.416-0.267,0.829c-0.122,1.372-0.653,2.338-1.593,2.902
		c-0.498,0.294-1.205,0.442-2.12,0.442h-0.369v-2.818h0.121c0.428,0,0.731-0.089,0.914-0.267c0.182-0.177,0.288-0.49,0.317-0.935
		c0.037-0.726,0.105-1.236,0.203-1.529c0.097-0.294,0.295-0.585,0.595-0.877c0.52-0.508,1.243-0.76,2.169-0.76H25.404L25.404,40.66z
		 M28.64,37.942v2.718h1.196v2.81H28.64c0,0.563,0.09,0.955,0.268,1.168c0.177,0.212,0.504,0.318,0.978,0.318v2.798
		c-0.137,0.005-0.24,0.007-0.306,0.007c-0.602,0-1.17-0.141-1.705-0.42c-0.534-0.279-0.961-0.658-1.284-1.139
		c-0.408-0.612-0.613-1.424-0.613-2.434v-5.826H28.64L28.64,37.942z M35.086,44.992v2.753c-0.218,0.039-0.417,0.059-0.598,0.059
		c-1.066,0-1.957-0.353-2.668-1.055c-0.712-0.702-1.066-1.58-1.066-2.639c0-1.03,0.359-1.902,1.078-2.618
		c0.719-0.717,1.595-1.077,2.623-1.077c1.146,0,2.053,0.336,2.713,1.008c0.663,0.671,0.993,1.588,0.993,2.75v3.48h-2.662v-3.288
		c0-0.374-0.092-0.673-0.274-0.896c-0.182-0.223-0.428-0.335-0.736-0.335c-0.279,0-0.522,0.101-0.726,0.306
		c-0.204,0.204-0.306,0.447-0.306,0.726c0,0.296,0.091,0.536,0.277,0.729c0.185,0.189,0.42,0.284,0.705,0.284
		C34.671,45.179,34.886,45.116,35.086,44.992L35.086,44.992z"/>
	<path fill="#FFFFFF" stroke="#000000" stroke-width="0.0092" stroke-miterlimit="22.9256" d="M-6.686,54.312l1.483,0.038
		C-5.301,55.118-5.567,55.71-6,56.129c-0.433,0.417-0.998,0.626-1.695,0.626c-0.709,0-1.303-0.237-1.78-0.712
		c-0.477-0.476-0.716-1.064-0.716-1.769c0-0.708,0.245-1.306,0.731-1.789c0.486-0.483,1.086-0.725,1.801-0.725
		c0.701,0,1.287,0.236,1.757,0.711c0.325,0.329,0.556,0.785,0.69,1.37l-1.519,0.102c-0.168-0.519-0.491-0.78-0.964-0.78
		c-0.302,0-0.551,0.104-0.747,0.313c-0.197,0.208-0.295,0.476-0.295,0.799c0,0.311,0.095,0.569,0.29,0.772
		c0.192,0.204,0.436,0.305,0.731,0.305c0.299,0,0.539-0.089,0.716-0.269C-6.823,54.904-6.717,54.647-6.686,54.312L-6.686,54.312z
		 M-2.982,53.089c0.492,0,0.914,0.177,1.266,0.533c0.352,0.354,0.529,0.778,0.529,1.274c0,0.501-0.179,0.929-0.536,1.282
		c-0.356,0.353-0.786,0.53-1.291,0.53s-0.935-0.177-1.293-0.532c-0.359-0.354-0.537-0.782-0.537-1.28
		c0-0.509,0.178-0.938,0.537-1.285C-3.949,53.263-3.508,53.089-2.982,53.089L-2.982,53.089z M-3.018,54.376
		c-0.14,0-0.258,0.05-0.356,0.15s-0.146,0.225-0.146,0.371c0,0.146,0.05,0.268,0.149,0.37c0.099,0.102,0.217,0.153,0.354,0.153
		c0.139,0,0.258-0.051,0.357-0.153c0.098-0.103,0.148-0.225,0.148-0.37c0-0.146-0.048-0.271-0.147-0.371
		C-2.756,54.426-2.876,54.376-3.018,54.376L-3.018,54.376z M1.241,53.934v1.365H0.66v1.339h-1.304v-2.952
		c0-0.332,0.057-0.615,0.171-0.85c0.145-0.3,0.363-0.545,0.657-0.734c0.294-0.189,0.599-0.285,0.918-0.285l0.139,0.004v1.368
		c-0.029-0.005-0.051-0.007-0.065-0.007c-0.164,0-0.292,0.056-0.381,0.165S0.66,53.612,0.66,53.815v0.119H1.241L1.241,53.934z
		 M3.699,53.934v1.365H3.116v1.339H1.812v-2.952c0-0.332,0.058-0.615,0.172-0.85c0.144-0.3,0.363-0.545,0.656-0.734
		c0.294-0.189,0.601-0.285,0.919-0.285l0.14,0.004v1.368c-0.03-0.005-0.053-0.007-0.067-0.007c-0.164,0-0.292,0.056-0.38,0.165
		c-0.09,0.109-0.135,0.265-0.135,0.468v0.119H3.699L3.699,53.934z M7.685,55.111H5.709c-0.03-0.1-0.046-0.192-0.046-0.277
		c0-0.115,0.021-0.229,0.063-0.341H6.39c-0.047-0.258-0.193-0.386-0.437-0.386c-0.163,0-0.294,0.068-0.397,0.207
		c-0.103,0.139-0.153,0.316-0.153,0.531c0,0.226,0.051,0.409,0.149,0.548c0.097,0.139,0.228,0.208,0.387,0.208
		c0.131,0,0.255-0.065,0.377-0.194l0.742,0.892c-0.347,0.273-0.73,0.409-1.154,0.409c-0.516,0-0.95-0.174-1.301-0.52
		c-0.351-0.346-0.525-0.775-0.525-1.286c0-0.508,0.177-0.939,0.532-1.29c0.354-0.351,0.789-0.526,1.305-0.526
		c0.505,0,0.928,0.171,1.271,0.514c0.343,0.343,0.513,0.765,0.513,1.268C7.699,54.918,7.694,54.999,7.685,55.111L7.685,55.111z
		 M11.64,55.111H9.664c-0.03-0.1-0.045-0.192-0.045-0.277c0-0.115,0.022-0.229,0.063-0.341h0.662
		c-0.046-0.258-0.192-0.386-0.436-0.386c-0.164,0-0.295,0.068-0.397,0.207c-0.103,0.139-0.154,0.316-0.154,0.531
		c0,0.226,0.05,0.409,0.148,0.548c0.098,0.139,0.229,0.208,0.388,0.208c0.131,0,0.256-0.065,0.377-0.194l0.743,0.892
		c-0.347,0.273-0.73,0.409-1.155,0.409c-0.515,0-0.949-0.174-1.3-0.52c-0.35-0.346-0.525-0.775-0.525-1.286
		c0-0.508,0.177-0.939,0.531-1.29c0.354-0.351,0.79-0.526,1.305-0.526c0.505,0,0.929,0.171,1.271,0.514
		c0.343,0.343,0.514,0.765,0.514,1.268C11.655,54.918,11.651,54.999,11.64,55.111L11.64,55.111z M15.896,55.333v1.349
		c-0.107,0.018-0.204,0.028-0.293,0.028c-0.521,0-0.958-0.172-1.307-0.516c-0.348-0.344-0.522-0.774-0.522-1.293
		c0-0.505,0.175-0.932,0.528-1.283c0.352-0.351,0.78-0.527,1.285-0.527c0.562,0,1.006,0.164,1.33,0.493
		c0.323,0.328,0.486,0.778,0.486,1.347v1.705h-1.305v-1.611c0-0.183-0.045-0.329-0.133-0.439c-0.09-0.109-0.21-0.163-0.362-0.163
		c-0.137,0-0.255,0.048-0.355,0.149c-0.1,0.1-0.15,0.219-0.15,0.354c0,0.146,0.045,0.264,0.136,0.357
		c0.09,0.093,0.205,0.14,0.345,0.14C15.693,55.425,15.798,55.394,15.896,55.333L15.896,55.333z M21.261,56.637h-1.304v-1.962
		c0-0.199-0.083-0.299-0.248-0.299c-0.163,0-0.244,0.1-0.244,0.299v1.962h-1.303v-1.938c0-0.453,0.149-0.833,0.449-1.145
		c0.3-0.309,0.668-0.465,1.102-0.465c0.498,0,0.896,0.181,1.195,0.541c0.235,0.281,0.353,0.672,0.353,1.174V56.637L21.261,56.637z
		 M24.16,51.88h1.304v2.895c0,0.532-0.138,0.967-0.418,1.302c-0.16,0.193-0.364,0.347-0.613,0.459
		c-0.246,0.113-0.5,0.171-0.76,0.171c-0.519,0-0.956-0.175-1.311-0.523c-0.355-0.35-0.534-0.776-0.534-1.283
		c0-0.49,0.177-0.916,0.53-1.273c0.353-0.358,0.772-0.536,1.255-0.536c0.076,0,0.192,0.006,0.349,0.021v1.436
		c-0.107-0.084-0.215-0.125-0.322-0.125c-0.134,0-0.25,0.048-0.346,0.147c-0.096,0.1-0.145,0.218-0.145,0.356
		c0,0.136,0.049,0.251,0.149,0.349c0.102,0.096,0.221,0.144,0.36,0.144c0.334,0,0.501-0.231,0.501-0.694V51.88L24.16,51.88z
		 M32.704,56.637H31.4v-1.874c0-0.146-0.016-0.246-0.045-0.302c-0.03-0.055-0.085-0.083-0.165-0.083
		c-0.147,0-0.219,0.129-0.219,0.388v1.871h-1.304v-1.874c0-0.146-0.016-0.246-0.048-0.302c-0.03-0.055-0.086-0.083-0.165-0.083
		c-0.144,0-0.216,0.129-0.216,0.388v1.871h-1.304v-2.14c0-0.39,0.131-0.723,0.394-0.996c0.262-0.272,0.582-0.409,0.955-0.409
		c0.386,0,0.732,0.163,1.039,0.489c0.342-0.326,0.684-0.489,1.024-0.489c0.436,0,0.784,0.158,1.046,0.475
		c0.207,0.246,0.311,0.605,0.311,1.076V56.637L32.704,56.637z M35.115,53.089c0.494,0,0.916,0.177,1.267,0.533
		c0.352,0.354,0.529,0.778,0.529,1.274c0,0.501-0.179,0.929-0.536,1.282c-0.355,0.353-0.786,0.53-1.29,0.53
		c-0.504,0-0.936-0.177-1.294-0.532c-0.357-0.354-0.535-0.782-0.535-1.28c0-0.509,0.178-0.938,0.535-1.285
		C34.149,53.263,34.591,53.089,35.115,53.089L35.115,53.089z M35.08,54.376c-0.139,0-0.258,0.05-0.354,0.15
		c-0.098,0.101-0.147,0.225-0.147,0.371c0,0.146,0.051,0.268,0.149,0.37c0.099,0.102,0.216,0.153,0.352,0.153
		c0.141,0,0.259-0.051,0.357-0.153c0.099-0.103,0.149-0.225,0.149-0.37c0-0.146-0.049-0.271-0.147-0.371
		C35.343,54.426,35.223,54.376,35.08,54.376L35.08,54.376z M39.362,53.128v1.394c-0.091-0.051-0.174-0.076-0.248-0.076
		c-0.237,0-0.356,0.18-0.356,0.542v1.649h-1.303v-1.899c0-0.502,0.136-0.902,0.412-1.201c0.274-0.298,0.64-0.448,1.098-0.448
		C39.066,53.089,39.199,53.104,39.362,53.128L39.362,53.128z M43.16,55.111h-1.976c-0.03-0.1-0.045-0.192-0.045-0.277
		c0-0.115,0.022-0.229,0.064-0.341h0.662c-0.046-0.258-0.192-0.386-0.437-0.386c-0.162,0-0.295,0.068-0.396,0.207
		c-0.103,0.139-0.153,0.316-0.153,0.531c0,0.226,0.049,0.409,0.148,0.548c0.099,0.139,0.229,0.208,0.388,0.208
		c0.131,0,0.255-0.065,0.377-0.194l0.743,0.892c-0.346,0.273-0.73,0.409-1.155,0.409c-0.515,0-0.948-0.174-1.3-0.52
		c-0.351-0.346-0.526-0.775-0.526-1.286c0-0.508,0.178-0.939,0.532-1.29c0.355-0.351,0.789-0.526,1.306-0.526
		c0.504,0,0.928,0.171,1.27,0.514c0.343,0.343,0.515,0.765,0.515,1.268C43.175,54.918,43.17,54.999,43.16,55.111L43.16,55.111z"/>
	
		<path fill-rule="evenodd" clip-rule="evenodd" fill="#FF6600" stroke="#000000" stroke-width="0.0092" stroke-miterlimit="22.9256" d="
		M-20.071,79.599c-0.577,0.588-1.486,3.297,1.431,2.134c7.988-2.698,22.47-12.603,67.185-9.932c2.202,0.247,1.823-1.375,1.393-2.085
		C46.848,64.289,4.853,48.157-20.071,79.599L-20.071,79.599z"/>
	
		<path fill-rule="evenodd" clip-rule="evenodd" fill="#FF6600" stroke="#000000" stroke-width="0.0092" stroke-miterlimit="22.9256" d="
		M3.616,21.78c-0.534-0.795-1.599-3.973,1.307-3.249c8.134,2.424,10.004,3.134,18.989-0.254c3.709-1.358,3.598,2.356,3.57,2.791
		C27.331,27.776,10.294,34.02,3.616,21.78L3.616,21.78z"/>
	
		<path fill-rule="evenodd" clip-rule="evenodd" fill="#FFFFFF" stroke="#000000" stroke-width="0.0092" stroke-miterlimit="22.9256" d="
		M0.609,29.13c-0.586-0.734-1.336-3.303,0.899-2.44c6.146,4.175,18.799,4.552,26.902,1.292c4.674-1.889,2.489,1.881,2.542,1.836
		C28.367,34.749,8.452,40.17,0.609,29.13L0.609,29.13z"/>
	
		<path fill-rule="evenodd" clip-rule="evenodd" fill="#FFFFFF" stroke="#000000" stroke-width="0.0092" stroke-miterlimit="22.9256" d="
		M14.356,19.709c-0.436,0.197-1.456,0.872-1.39,0.017c1.716-2.934,0.154-4.975-4.042-7.882c-1.738-0.938,0.643-0.658,1.197-0.642
		C15.643,12.165,20.317,15.844,14.356,19.709L14.356,19.709z"/>
	
		<path fill-rule="evenodd" clip-rule="evenodd" fill="#FFFFFF" stroke="#000000" stroke-width="0.0092" stroke-miterlimit="22.9256" d="
		M19.347,17.769c-0.102,0.298-0.342,1.416,0.99,0.702c1.136-0.636,4.917-3.324,4.136-5.76c-0.426-2.489-4.634-3.653-8.042-4.554
		c-3.409-0.9-4.243-2.039-4.385-3.787c-0.143-1.748,2.317-4.514,6.081-3.295c1.107,0.367,0.91-0.127,0.903-0.157
		C18.849,0.591,18.354,0.036,16.058,0c-2.699-0.106-7.439,1.828-7.369,5.747c0.072,3.919,4.243,5.454,6.055,5.892
		c1.491,0.477,5.307,1.55,5.166,4.025C19.923,17.268,19.551,17.183,19.347,17.769L19.347,17.769z"/>
</g>
</svg>
