<?xml version="1.0" encoding="utf-8"?>
<!-- Generator: Adobe Illustrator 16.0.0, SVG Export Plug-In . SVG Version: 6.00 Build 0)  -->
<!DOCTYPE svg PUBLIC "-//W3C//DTD SVG 1.1//EN" "http://www.w3.org/Graphics/SVG/1.1/DTD/svg11.dtd">
<svg version="1.1" id="Layer_1" xmlns="http://www.w3.org/2000/svg" xmlns:xlink="http://www.w3.org/1999/xlink" x="0px" y="0px"
	 width="42.167px" height="75.079px" viewBox="2101.222 2102.992 42.167 75.079"
	 enable-background="new 2101.222 2102.992 42.167 75.079" xml:space="preserve">
<g>
	<polygon stroke="#FFFFFF" stroke-width="0.0056" stroke-miterlimit="22.9256" points="2143.389,2102.992 2101.222,2102.992 
		2101.222,2153.8 2122.494,2178.071 2122.494,2178.071 2143.389,2154.109 	"/>
	<path fill="#FFFFFF" stroke="#000000" stroke-width="0.0053" stroke-miterlimit="22.9256" d="M2111.065,2126.531h2.04
		c1.211,0,1.816,0.475,1.816,1.425c0,0.471-0.206,0.864-0.622,1.178c0.6,0.259,0.902,0.727,0.902,1.394
		c0,0.515-0.177,0.922-0.531,1.227c-0.173,0.146-0.358,0.245-0.556,0.306c-0.196,0.056-0.463,0.086-0.796,0.086H2113v-1.445h0.284
		c0.168,0,0.286-0.02,0.354-0.062c0.068-0.044,0.103-0.117,0.103-0.228c0-0.179-0.139-0.27-0.419-0.27H2113v-1.497
		c0.306,0,0.461-0.107,0.461-0.317c0-0.196-0.139-0.294-0.416-0.294h-0.309v4.112h-1.671V2126.531L2111.065,2126.531z
		 M2118.041,2130.606v1.594c-0.127,0.021-0.24,0.032-0.345,0.032c-0.616,0-1.134-0.203-1.546-0.61
		c-0.411-0.404-0.615-0.911-0.615-1.525c0-0.597,0.209-1.101,0.623-1.515c0.416-0.415,0.924-0.621,1.517-0.621
		c0.665,0,1.188,0.193,1.569,0.583c0.382,0.388,0.574,0.918,0.574,1.587v2.015h-1.538v-1.902c0-0.215-0.055-0.388-0.159-0.518
		c-0.104-0.13-0.248-0.193-0.425-0.193c-0.162,0-0.305,0.059-0.421,0.177c-0.118,0.116-0.179,0.258-0.179,0.419
		c0,0.17,0.056,0.312,0.162,0.421c0.107,0.109,0.243,0.167,0.407,0.167C2117.801,2130.716,2117.925,2130.676,2118.041,2130.606
		L2118.041,2130.606z M2122.968,2128.004v1.645c-0.11-0.059-0.208-0.092-0.294-0.092c-0.279,0-0.421,0.215-0.421,0.642v1.947h-1.537
		v-2.243c0-0.592,0.16-1.063,0.483-1.416c0.324-0.353,0.758-0.53,1.296-0.53C2122.616,2127.956,2122.773,2127.975,2122.968,2128.004
		L2122.968,2128.004z M2124.958,2128.043v4.103h-1.541v-4.103H2124.958L2124.958,2128.043z M2124.19,2126.211
		c0.209,0,0.391,0.076,0.542,0.222s0.229,0.319,0.229,0.519c0,0.217-0.072,0.391-0.218,0.528c-0.143,0.138-0.33,0.208-0.554,0.208
		c-0.221,0-0.409-0.07-0.553-0.208c-0.146-0.138-0.216-0.312-0.216-0.528c0-0.199,0.075-0.373,0.229-0.519
		C2123.803,2126.287,2123.984,2126.211,2124.19,2126.211L2124.19,2126.211z M2128.433,2128.102v1.619
		c-0.217,0-0.364,0.041-0.446,0.123c-0.079,0.078-0.132,0.24-0.154,0.479c-0.071,0.794-0.377,1.353-0.92,1.677
		c-0.288,0.171-0.697,0.257-1.227,0.257h-0.215v-1.627h0.071c0.245,0,0.422-0.053,0.526-0.157c0.104-0.103,0.17-0.281,0.187-0.539
		c0.019-0.42,0.058-0.714,0.113-0.885c0.056-0.17,0.171-0.338,0.347-0.506c0.3-0.295,0.717-0.44,1.252-0.44H2128.433
		L2128.433,2128.102z M2130.303,2126.531v1.57h0.692v1.624h-0.692c0,0.324,0.054,0.553,0.154,0.675
		c0.106,0.123,0.293,0.185,0.569,0.185v1.62c-0.083,0-0.141,0.001-0.18,0.001c-0.349,0-0.679-0.078-0.983-0.243
		c-0.311-0.162-0.559-0.379-0.744-0.657c-0.234-0.354-0.355-0.823-0.355-1.406v-3.368H2130.303L2130.303,2126.531z
		 M2134.034,2130.606v1.594c-0.13,0.021-0.244,0.032-0.349,0.032c-0.617,0-1.131-0.203-1.542-0.61
		c-0.411-0.404-0.616-0.911-0.616-1.525c0-0.597,0.207-1.101,0.624-1.515c0.413-0.415,0.92-0.621,1.515-0.621
		c0.663,0,1.186,0.193,1.568,0.583c0.384,0.388,0.576,0.918,0.576,1.587v2.015h-1.541v-1.902c0-0.215-0.051-0.388-0.158-0.518
		c-0.106-0.13-0.247-0.193-0.426-0.193c-0.16,0-0.303,0.059-0.419,0.177c-0.118,0.116-0.177,0.258-0.177,0.419
		c0,0.17,0.051,0.312,0.158,0.421c0.106,0.109,0.244,0.167,0.407,0.167C2133.792,2130.716,2133.917,2130.676,2134.034,2130.606
		L2134.034,2130.606z"/>
	<path fill="#FFFFFF" stroke="#000000" stroke-width="0.0053" stroke-miterlimit="22.9256" d="M2109.876,2135.996l0.858,0.022
		c-0.057,0.442-0.212,0.784-0.462,1.027c-0.249,0.241-0.578,0.362-0.98,0.362c-0.409,0-0.751-0.138-1.027-0.409
		c-0.277-0.278-0.415-0.617-0.415-1.022c0-0.413,0.143-0.757,0.422-1.037c0.282-0.28,0.627-0.419,1.043-0.419
		c0.404,0,0.742,0.138,1.016,0.411c0.187,0.191,0.319,0.453,0.398,0.79l-0.877,0.061c-0.098-0.301-0.283-0.45-0.56-0.45
		c-0.174,0-0.317,0.059-0.43,0.181c-0.115,0.118-0.173,0.274-0.173,0.464c0,0.178,0.058,0.326,0.17,0.443
		c0.108,0.118,0.252,0.177,0.422,0.177c0.173,0,0.313-0.052,0.413-0.156C2109.797,2136.338,2109.859,2136.189,2109.876,2135.996
		L2109.876,2135.996z M2112.018,2135.289c0.286,0,0.529,0.102,0.734,0.306c0.203,0.207,0.304,0.452,0.304,0.738
		c0,0.289-0.101,0.539-0.309,0.742c-0.204,0.206-0.454,0.306-0.746,0.306c-0.294,0-0.542-0.104-0.751-0.309
		c-0.204-0.205-0.309-0.451-0.309-0.739c0-0.295,0.104-0.543,0.309-0.743C2111.459,2135.388,2111.717,2135.289,2112.018,2135.289
		L2112.018,2135.289z M2111.996,2136.032c-0.08,0-0.146,0.03-0.205,0.086c-0.057,0.058-0.084,0.132-0.084,0.215
		c0,0.085,0.031,0.156,0.087,0.216c0.058,0.059,0.126,0.089,0.202,0.089c0.082,0,0.15-0.03,0.206-0.089
		c0.06-0.06,0.09-0.131,0.09-0.216c0-0.083-0.03-0.157-0.085-0.215C2112.149,2136.062,2112.078,2136.032,2111.996,2136.032
		L2111.996,2136.032z M2114.462,2135.778v0.788h-0.336v0.773h-0.755v-1.706c0-0.193,0.031-0.356,0.097-0.491
		c0.083-0.174,0.213-0.316,0.381-0.424c0.17-0.11,0.347-0.167,0.531-0.167l0.082,0.005v0.788c-0.019-0.003-0.032-0.003-0.041-0.003
		c-0.094,0-0.168,0.033-0.22,0.096c-0.051,0.062-0.075,0.152-0.075,0.271v0.07H2114.462L2114.462,2135.778z M2115.882,2135.778
		v0.788h-0.338v0.773h-0.754v-1.706c0-0.193,0.036-0.356,0.099-0.491c0.085-0.174,0.209-0.316,0.381-0.424
		c0.172-0.11,0.348-0.167,0.533-0.167l0.079,0.005v0.788c-0.017-0.003-0.03-0.003-0.036-0.003c-0.098,0-0.173,0.033-0.225,0.096
		c-0.049,0.062-0.077,0.152-0.077,0.271v0.07H2115.882L2115.882,2135.778z M2118.187,2136.456h-1.142
		c-0.016-0.056-0.027-0.107-0.027-0.159c0-0.066,0.013-0.132,0.037-0.196h0.383c-0.029-0.148-0.11-0.225-0.254-0.225
		c-0.093,0-0.17,0.04-0.229,0.12c-0.059,0.082-0.087,0.185-0.087,0.311c0,0.128,0.027,0.234,0.085,0.314
		c0.056,0.082,0.132,0.119,0.224,0.119c0.076,0,0.148-0.037,0.218-0.11l0.43,0.513c-0.202,0.161-0.422,0.238-0.667,0.238
		c-0.3,0-0.55-0.1-0.754-0.3c-0.202-0.2-0.302-0.448-0.302-0.745c0-0.293,0.103-0.543,0.307-0.746
		c0.204-0.202,0.454-0.304,0.755-0.304c0.292,0,0.538,0.1,0.735,0.298c0.199,0.198,0.297,0.442,0.297,0.732
		C2118.195,2136.347,2118.191,2136.394,2118.187,2136.456L2118.187,2136.456z M2120.475,2136.456h-1.143
		c-0.018-0.056-0.027-0.107-0.027-0.159c0-0.066,0.016-0.132,0.037-0.196h0.384c-0.028-0.148-0.113-0.225-0.254-0.225
		c-0.093,0-0.171,0.04-0.229,0.12c-0.061,0.082-0.09,0.185-0.09,0.311c0,0.128,0.029,0.234,0.087,0.314
		c0.057,0.082,0.131,0.119,0.224,0.119c0.075,0,0.148-0.037,0.221-0.11l0.427,0.513c-0.201,0.161-0.424,0.238-0.666,0.238
		c-0.299,0-0.552-0.1-0.755-0.3c-0.201-0.2-0.301-0.448-0.301-0.745c0-0.293,0.101-0.543,0.307-0.746
		c0.204-0.202,0.457-0.304,0.755-0.304c0.291,0,0.536,0.1,0.734,0.298s0.299,0.442,0.299,0.732
		C2120.484,2136.347,2120.479,2136.394,2120.475,2136.456L2120.475,2136.456z M2122.935,2136.588v0.779
		c-0.062,0.011-0.118,0.015-0.167,0.015c-0.303,0-0.557-0.098-0.757-0.296c-0.202-0.201-0.304-0.448-0.304-0.75
		c0-0.293,0.103-0.538,0.306-0.741c0.204-0.202,0.452-0.304,0.743-0.304c0.325,0,0.582,0.094,0.769,0.284
		c0.188,0.189,0.281,0.451,0.281,0.779v0.985h-0.752v-0.931c0-0.106-0.028-0.19-0.08-0.255s-0.121-0.092-0.206-0.092
		c-0.08,0-0.151,0.025-0.207,0.086c-0.057,0.057-0.086,0.124-0.086,0.205c0,0.083,0.023,0.152,0.08,0.207
		c0.048,0.051,0.117,0.078,0.196,0.078C2122.816,2136.639,2122.878,2136.621,2122.935,2136.588L2122.935,2136.588z
		 M2126.037,2137.34h-0.754v-1.135c0-0.115-0.045-0.173-0.143-0.173c-0.096,0-0.143,0.058-0.143,0.173v1.135h-0.753v-1.121
		c0-0.262,0.086-0.481,0.26-0.663c0.175-0.179,0.386-0.267,0.636-0.267c0.289,0,0.52,0.104,0.691,0.312
		c0.139,0.162,0.205,0.391,0.205,0.68V2137.34L2126.037,2137.34z M2127.712,2134.59h0.755v1.674c0,0.308-0.08,0.559-0.241,0.752
		c-0.091,0.112-0.209,0.201-0.353,0.269c-0.147,0.062-0.289,0.097-0.442,0.097c-0.3,0-0.551-0.1-0.757-0.303
		c-0.204-0.201-0.311-0.448-0.311-0.742c0-0.284,0.104-0.529,0.309-0.736c0.205-0.207,0.447-0.309,0.727-0.309
		c0.043,0,0.109,0.003,0.2,0.01v0.831c-0.062-0.048-0.126-0.069-0.185-0.069c-0.078,0-0.146,0.025-0.201,0.083
		c-0.057,0.057-0.084,0.127-0.084,0.208c0,0.077,0.031,0.142,0.087,0.199c0.06,0.057,0.127,0.085,0.209,0.085
		c0.19,0,0.287-0.137,0.287-0.402V2134.59L2127.712,2134.59z M2132.655,2137.34h-0.755v-1.084c0-0.083-0.01-0.142-0.027-0.174
		c-0.016-0.035-0.049-0.049-0.093-0.049c-0.085,0-0.129,0.076-0.129,0.225v1.082h-0.755v-1.084c0-0.083-0.006-0.142-0.025-0.174
		c-0.018-0.035-0.052-0.049-0.098-0.049c-0.081,0-0.125,0.076-0.125,0.225v1.082h-0.751v-1.236c0-0.228,0.074-0.418,0.226-0.575
		c0.152-0.16,0.336-0.237,0.554-0.237c0.223,0,0.423,0.094,0.6,0.282c0.198-0.188,0.396-0.282,0.592-0.282
		c0.253,0,0.456,0.091,0.606,0.272c0.12,0.144,0.181,0.351,0.181,0.623V2137.34L2132.655,2137.34z M2134.046,2135.289
		c0.286,0,0.53,0.102,0.735,0.306c0.201,0.207,0.306,0.452,0.306,0.738c0,0.289-0.104,0.539-0.31,0.742
		c-0.208,0.206-0.456,0.306-0.746,0.306c-0.293,0-0.541-0.104-0.748-0.309c-0.209-0.205-0.312-0.451-0.312-0.739
		c0-0.295,0.103-0.543,0.312-0.743C2133.49,2135.388,2133.746,2135.289,2134.046,2135.289L2134.046,2135.289z M2134.027,2136.032
		c-0.081,0-0.149,0.03-0.205,0.086c-0.058,0.058-0.084,0.132-0.084,0.215c0,0.085,0.029,0.156,0.085,0.216
		c0.056,0.059,0.126,0.089,0.204,0.089c0.081,0,0.152-0.03,0.206-0.089c0.058-0.06,0.087-0.131,0.087-0.216
		c0-0.083-0.029-0.157-0.085-0.215C2134.18,2136.062,2134.111,2136.032,2134.027,2136.032L2134.027,2136.032z M2136.504,2135.311
		v0.805c-0.053-0.03-0.102-0.042-0.144-0.042c-0.137,0-0.204,0.103-0.204,0.314v0.952h-0.758v-1.098c0-0.29,0.081-0.521,0.24-0.694
		c0.158-0.173,0.369-0.259,0.635-0.259C2136.331,2135.289,2136.41,2135.297,2136.504,2135.311L2136.504,2135.311z
		 M2138.698,2136.456h-1.142c-0.016-0.056-0.025-0.107-0.025-0.159c0-0.066,0.014-0.132,0.035-0.196h0.385
		c-0.027-0.148-0.111-0.225-0.252-0.225c-0.097,0-0.172,0.04-0.229,0.12c-0.061,0.082-0.09,0.185-0.09,0.311
		c0,0.128,0.029,0.234,0.087,0.314c0.054,0.082,0.131,0.119,0.224,0.119c0.074,0,0.146-0.037,0.218-0.11l0.429,0.513
		c-0.198,0.161-0.421,0.238-0.668,0.238c-0.296,0-0.548-0.1-0.749-0.3c-0.204-0.2-0.306-0.448-0.306-0.745
		c0-0.293,0.103-0.543,0.308-0.746c0.204-0.202,0.457-0.304,0.755-0.304c0.29,0,0.536,0.1,0.734,0.298s0.296,0.442,0.296,0.732
		C2138.707,2136.347,2138.706,2136.394,2138.698,2136.456L2138.698,2136.456z"/>
	<path fill="#FF6600" stroke="#000000" stroke-width="0.0053" stroke-miterlimit="22.9256" d="M2102.137,2150.617
		c-0.335,0.339-0.859,1.907,0.828,1.233c4.617-1.561,12.994-7.285,38.852-5.742c1.271,0.143,1.052-0.796,0.802-1.206
		C2140.832,2141.766,2116.551,2132.437,2102.137,2150.617L2102.137,2150.617z"/>
	<path fill="#FF6600" stroke="#000000" stroke-width="0.0053" stroke-miterlimit="22.9256" d="M2115.835,2117.184
		c-0.311-0.459-0.927-2.297,0.757-1.878c4.702,1.401,5.782,1.813,10.979-0.146c2.145-0.787,2.08,1.359,2.064,1.612
		C2129.548,2120.651,2119.697,2124.261,2115.835,2117.184L2115.835,2117.184z"/>
	<path fill="#FFFFFF" stroke="#000000" stroke-width="0.0053" stroke-miterlimit="22.9256" d="M2114.096,2121.438
		c-0.339-0.428-0.773-1.912,0.521-1.413c3.554,2.415,10.871,2.632,15.554,0.746c2.706-1.093,1.441,1.09,1.47,1.062
		C2130.147,2124.685,2118.632,2127.818,2114.096,2121.438L2114.096,2121.438z"/>
	<path fill="#FFFFFF" stroke="#000000" stroke-width="0.0053" stroke-miterlimit="22.9256" d="M2122.043,2115.988
		c-0.252,0.113-0.84,0.501-0.803,0.008c0.993-1.695,0.09-2.876-2.338-4.556c-1.004-0.545,0.372-0.383,0.691-0.372
		C2122.791,2111.623,2125.492,2113.751,2122.043,2115.988L2122.043,2115.988z"/>
	<path fill="#FFFFFF" stroke="#000000" stroke-width="0.0053" stroke-miterlimit="22.9256" d="M2124.931,2114.865
		c-0.06,0.172-0.198,0.82,0.571,0.404c0.657-0.366,2.845-1.921,2.394-3.33c-0.248-1.439-2.683-2.112-4.651-2.633
		c-1.972-0.521-2.453-1.178-2.537-2.19c-0.082-1.01,1.34-2.61,3.518-1.905c0.641,0.213,0.525-0.074,0.52-0.09
		c-0.103-0.188-0.389-0.511-1.716-0.531c-1.562-0.061-4.303,1.059-4.259,3.322c0.041,2.268,2.453,3.156,3.499,3.407
		c0.862,0.278,3.07,0.896,2.985,2.329C2125.264,2114.576,2125.049,2114.524,2124.931,2114.865L2124.931,2114.865z"/>
</g>
</svg>
