<?xml version="1.0" encoding="utf-8"?>
<!-- Generator: Adobe Illustrator 16.0.0, SVG Export Plug-In . SVG Version: 6.00 Build 0)  -->
<!DOCTYPE svg PUBLIC "-//W3C//DTD SVG 1.1//EN" "http://www.w3.org/Graphics/SVG/1.1/DTD/svg11.dtd">
<svg version="1.1" id="Layer_1" xmlns="http://www.w3.org/2000/svg" xmlns:xlink="http://www.w3.org/1999/xlink" x="0px" y="0px"
	 width="72.992px" height="72.992px" viewBox="2052.992 2052.992 72.992 72.992"
	 enable-background="new 2052.992 2052.992 72.992 72.992" xml:space="preserve">
<g>
	<polygon stroke="#FFFFFF" stroke-width="0.0074" stroke-miterlimit="22.9256" points="2125.984,2052.992 2052.992,2052.992 
		2052.992,2125.984 2125.984,2125.984 	"/>
	<path fill="#FFFFFF" stroke="#000000" stroke-width="0.0074" stroke-miterlimit="22.9256" d="M2073.728,2086.876h2.85
		c1.688,0,2.533,0.665,2.533,1.993c0,0.658-0.288,1.208-0.866,1.643c0.837,0.365,1.257,1.015,1.257,1.949
		c0,0.716-0.247,1.287-0.741,1.712c-0.241,0.202-0.5,0.344-0.775,0.424c-0.276,0.081-0.646,0.122-1.113,0.122h-0.443v-2.017h0.396
		c0.233,0,0.397-0.029,0.494-0.088c0.096-0.061,0.143-0.165,0.143-0.313c0-0.253-0.193-0.381-0.584-0.381h-0.449v-2.09
		c0.43,0,0.644-0.149,0.644-0.443c0-0.272-0.194-0.408-0.581-0.408h-0.431v5.74h-2.332V2086.876L2073.728,2086.876z
		 M2083.466,2092.569v2.224c-0.177,0.031-0.337,0.047-0.482,0.047c-0.86,0-1.58-0.284-2.155-0.851
		c-0.574-0.567-0.86-1.277-0.86-2.132c0-0.832,0.29-1.535,0.87-2.114c0.581-0.578,1.287-0.868,2.118-0.868
		c0.926,0,1.657,0.271,2.19,0.813c0.535,0.541,0.803,1.282,0.803,2.22v2.811h-2.149v-2.655c0-0.302-0.075-0.543-0.222-0.724
		c-0.147-0.181-0.346-0.271-0.595-0.271c-0.226,0-0.421,0.082-0.586,0.247c-0.165,0.164-0.247,0.36-0.247,0.586
		c0,0.239,0.074,0.434,0.224,0.589c0.148,0.152,0.339,0.229,0.568,0.229C2083.131,2092.721,2083.306,2092.669,2083.466,2092.569
		L2083.466,2092.569z M2090.344,2088.934v2.298c-0.149-0.084-0.287-0.125-0.408-0.125c-0.391,0-0.586,0.298-0.586,0.895v2.718
		h-2.149v-3.132c0-0.826,0.226-1.486,0.679-1.979c0.45-0.492,1.055-0.737,1.81-0.737
		C2089.857,2088.871,2090.074,2088.893,2090.344,2088.934L2090.344,2088.934z M2093.124,2088.99v5.729h-2.149v-5.729H2093.124
		L2093.124,2088.99z M2092.056,2086.433c0.29,0,0.543,0.103,0.755,0.309c0.214,0.204,0.319,0.447,0.319,0.726
		c0,0.3-0.1,0.545-0.302,0.735c-0.2,0.192-0.459,0.288-0.772,0.288c-0.314,0-0.573-0.096-0.772-0.288
		c-0.202-0.19-0.303-0.436-0.303-0.735c0-0.278,0.106-0.521,0.32-0.726C2091.512,2086.535,2091.766,2086.433,2092.056,2086.433
		L2092.056,2086.433z M2097.978,2089.07v2.264c-0.302,0-0.51,0.057-0.623,0.17c-0.112,0.112-0.185,0.336-0.216,0.669
		c-0.099,1.108-0.527,1.889-1.287,2.344c-0.401,0.237-0.973,0.356-1.712,0.356h-0.298v-2.274h0.098c0.346,0,0.591-0.072,0.738-0.216
		c0.146-0.143,0.232-0.396,0.257-0.755c0.029-0.586,0.084-0.998,0.162-1.235c0.079-0.237,0.239-0.473,0.48-0.708
		c0.42-0.41,1.004-0.614,1.751-0.614H2097.978L2097.978,2089.07z M2100.592,2086.876v2.194h0.965v2.27h-0.965
		c0,0.455,0.072,0.771,0.216,0.943c0.144,0.17,0.408,0.257,0.79,0.257v2.259c-0.111,0.004-0.194,0.006-0.247,0.006
		c-0.486,0-0.945-0.113-1.376-0.339c-0.432-0.226-0.777-0.532-1.038-0.92c-0.329-0.494-0.494-1.149-0.494-1.965v-4.705H2100.592
		L2100.592,2086.876z M2105.797,2092.569v2.224c-0.177,0.031-0.338,0.047-0.482,0.047c-0.861,0-1.581-0.284-2.155-0.851
		c-0.575-0.567-0.861-1.277-0.861-2.132c0-0.832,0.29-1.535,0.871-2.114c0.58-0.578,1.286-0.868,2.118-0.868
		c0.925,0,1.656,0.271,2.189,0.813c0.536,0.541,0.803,1.282,0.803,2.22v2.811h-2.149v-2.655c0-0.302-0.074-0.543-0.222-0.724
		c-0.146-0.181-0.345-0.271-0.594-0.271c-0.226,0-0.422,0.082-0.587,0.247c-0.165,0.164-0.247,0.36-0.247,0.586
		c0,0.239,0.074,0.434,0.224,0.589c0.149,0.152,0.339,0.229,0.568,0.229C2105.461,2092.721,2105.636,2092.669,2105.797,2092.569
		L2105.797,2092.569z"/>
	<path fill="#FFFFFF" stroke="#000000" stroke-width="0.0074" stroke-miterlimit="22.9256" d="M2072.065,2100.096l1.197,0.031
		c-0.079,0.619-0.294,1.098-0.644,1.436s-0.807,0.507-1.369,0.507c-0.572,0-1.052-0.192-1.438-0.575
		c-0.385-0.385-0.578-0.86-0.578-1.429c0-0.573,0.197-1.055,0.59-1.445c0.393-0.39,0.877-0.585,1.453-0.585
		c0.567,0,1.04,0.191,1.419,0.574c0.263,0.265,0.449,0.633,0.558,1.106l-1.225,0.081c-0.137-0.42-0.397-0.63-0.779-0.63
		c-0.244,0-0.445,0.084-0.604,0.254c-0.158,0.168-0.238,0.383-0.238,0.645c0,0.25,0.078,0.459,0.233,0.623s0.353,0.246,0.591,0.246
		c0.242,0,0.436-0.072,0.578-0.217C2071.955,2100.573,2072.039,2100.366,2072.065,2100.096L2072.065,2100.096z M2075.055,2099.108
		c0.398,0,0.739,0.143,1.023,0.43c0.285,0.286,0.427,0.629,0.427,1.028c0,0.404-0.144,0.75-0.433,1.036
		c-0.287,0.285-0.635,0.427-1.042,0.427s-0.755-0.143-1.044-0.429s-0.434-0.632-0.434-1.034c0-0.411,0.145-0.757,0.434-1.037
		C2074.275,2099.248,2074.632,2099.108,2075.055,2099.108L2075.055,2099.108z M2075.027,2100.146c-0.112,0-0.209,0.041-0.287,0.122
		c-0.079,0.082-0.118,0.182-0.118,0.3c0,0.117,0.04,0.217,0.12,0.299c0.08,0.083,0.175,0.124,0.285,0.124
		c0.112,0,0.209-0.041,0.288-0.124c0.08-0.082,0.12-0.182,0.12-0.299c0-0.118-0.039-0.218-0.118-0.3
		C2075.238,2100.188,2075.142,2100.146,2075.027,2100.146L2075.027,2100.146z M2078.467,2099.789v1.104h-0.47v1.08h-1.053v-2.383
		c0-0.27,0.046-0.498,0.138-0.688c0.116-0.242,0.293-0.439,0.53-0.593c0.237-0.152,0.484-0.229,0.742-0.229l0.112,0.003v1.104
		c-0.024-0.003-0.042-0.003-0.054-0.003c-0.133,0-0.235,0.044-0.308,0.132c-0.072,0.089-0.108,0.215-0.108,0.378v0.096H2078.467
		L2078.467,2099.789z M2080.45,2099.789v1.104h-0.47v1.08h-1.053v-2.383c0-0.27,0.046-0.498,0.139-0.688
		c0.116-0.242,0.293-0.439,0.53-0.593c0.237-0.152,0.484-0.229,0.741-0.229l0.112,0.003v1.104c-0.023-0.003-0.042-0.003-0.054-0.003
		c-0.133,0-0.235,0.044-0.307,0.132c-0.072,0.089-0.109,0.215-0.109,0.378v0.096H2080.45L2080.45,2099.789z M2083.67,2100.74h-1.596
		c-0.024-0.08-0.036-0.154-0.036-0.223c0-0.093,0.017-0.186,0.051-0.275h0.535c-0.038-0.209-0.156-0.312-0.353-0.312
		c-0.132,0-0.238,0.056-0.321,0.167c-0.083,0.112-0.124,0.256-0.124,0.43c0,0.183,0.04,0.329,0.12,0.441s0.185,0.17,0.313,0.17
		c0.105,0,0.206-0.054,0.305-0.158l0.6,0.721c-0.28,0.22-0.59,0.329-0.933,0.329c-0.416,0-0.767-0.14-1.05-0.42
		c-0.283-0.279-0.425-0.625-0.425-1.038c0-0.41,0.144-0.758,0.43-1.041c0.286-0.284,0.637-0.425,1.054-0.425
		c0.407,0,0.75,0.139,1.026,0.415s0.415,0.617,0.415,1.023C2083.682,2100.585,2083.678,2100.65,2083.67,2100.74L2083.67,2100.74z
		 M2086.864,2100.74h-1.596c-0.024-0.08-0.036-0.154-0.036-0.223c0-0.093,0.017-0.186,0.051-0.275h0.535
		c-0.038-0.209-0.156-0.312-0.353-0.312c-0.132,0-0.238,0.056-0.321,0.167c-0.082,0.112-0.124,0.256-0.124,0.43
		c0,0.183,0.04,0.329,0.12,0.441s0.185,0.17,0.313,0.17c0.105,0,0.206-0.054,0.305-0.158l0.6,0.721
		c-0.28,0.22-0.59,0.329-0.933,0.329c-0.416,0-0.767-0.14-1.05-0.42c-0.283-0.279-0.425-0.625-0.425-1.038
		c0-0.41,0.144-0.758,0.43-1.041c0.286-0.284,0.637-0.425,1.054-0.425c0.407,0,0.749,0.139,1.026,0.415
		c0.276,0.276,0.415,0.617,0.415,1.023C2086.876,2100.585,2086.872,2100.65,2086.864,2100.74L2086.864,2100.74z M2090.301,2100.92
		v1.09c-0.087,0.016-0.165,0.022-0.236,0.022c-0.422,0-0.774-0.139-1.056-0.417c-0.281-0.277-0.422-0.625-0.422-1.044
		c0-0.407,0.142-0.752,0.427-1.035c0.284-0.284,0.63-0.426,1.037-0.426c0.454,0,0.812,0.133,1.073,0.398
		c0.263,0.266,0.394,0.628,0.394,1.088v1.376h-1.054v-1.301c0-0.147-0.036-0.266-0.108-0.354c-0.072-0.088-0.169-0.132-0.291-0.132
		c-0.11,0-0.207,0.04-0.287,0.121c-0.081,0.08-0.121,0.177-0.121,0.287c0,0.117,0.036,0.212,0.109,0.288
		c0.073,0.075,0.166,0.112,0.278,0.112C2090.137,2100.994,2090.222,2100.969,2090.301,2100.92L2090.301,2100.92z M2094.633,2101.973
		h-1.053v-1.584c0-0.161-0.066-0.242-0.2-0.242c-0.132,0-0.197,0.081-0.197,0.242v1.584h-1.053v-1.564
		c0-0.366,0.121-0.674,0.363-0.925c0.242-0.25,0.539-0.375,0.89-0.375c0.401,0,0.724,0.145,0.966,0.436
		c0.188,0.228,0.284,0.543,0.284,0.948V2101.973L2094.633,2101.973z M2096.974,2098.131h1.054v2.339c0,0.431-0.113,0.78-0.339,1.051
		c-0.129,0.155-0.294,0.279-0.493,0.371c-0.2,0.092-0.405,0.138-0.615,0.138c-0.419,0-0.771-0.141-1.059-0.422
		c-0.287-0.282-0.431-0.627-0.431-1.036c0-0.396,0.143-0.738,0.428-1.028c0.285-0.289,0.623-0.433,1.014-0.433
		c0.062,0,0.155,0.006,0.281,0.017v1.16c-0.087-0.068-0.173-0.102-0.26-0.102c-0.108,0-0.201,0.04-0.279,0.12
		c-0.078,0.079-0.117,0.176-0.117,0.288c0,0.109,0.04,0.202,0.121,0.28s0.178,0.117,0.29,0.117c0.27,0,0.405-0.188,0.405-0.562
		V2098.131L2096.974,2098.131z M2103.873,2101.973h-1.053v-1.514c0-0.117-0.013-0.198-0.037-0.243
		c-0.023-0.045-0.068-0.067-0.133-0.067c-0.118,0-0.177,0.105-0.177,0.313v1.511h-1.053v-1.514c0-0.117-0.013-0.198-0.038-0.243
		s-0.069-0.067-0.134-0.067c-0.116,0-0.174,0.105-0.174,0.313v1.511h-1.053v-1.728c0-0.315,0.105-0.584,0.317-0.805
		c0.213-0.22,0.469-0.33,0.771-0.33c0.312,0,0.592,0.132,0.839,0.395c0.276-0.263,0.552-0.395,0.827-0.395
		c0.352,0,0.634,0.128,0.845,0.383c0.167,0.199,0.251,0.489,0.251,0.87V2101.973L2103.873,2101.973z M2105.82,2099.108
		c0.397,0,0.738,0.143,1.023,0.43c0.284,0.286,0.426,0.629,0.426,1.028c0,0.404-0.144,0.75-0.432,1.036
		c-0.287,0.285-0.636,0.427-1.043,0.427s-0.755-0.143-1.044-0.429s-0.434-0.632-0.434-1.034c0-0.411,0.145-0.757,0.434-1.037
		C2105.04,2099.248,2105.396,2099.108,2105.82,2099.108L2105.82,2099.108z M2105.792,2100.146c-0.112,0-0.208,0.041-0.287,0.122
		c-0.079,0.082-0.118,0.182-0.118,0.3c0,0.117,0.041,0.217,0.12,0.299c0.08,0.083,0.175,0.124,0.285,0.124
		c0.112,0,0.209-0.041,0.288-0.124c0.08-0.082,0.12-0.182,0.12-0.299c0-0.118-0.039-0.218-0.118-0.3
		C2106.004,2100.188,2105.906,2100.146,2105.792,2100.146L2105.792,2100.146z M2109.249,2099.139v1.126
		c-0.073-0.041-0.141-0.062-0.2-0.062c-0.191,0-0.287,0.146-0.287,0.438v1.331h-1.053v-1.534c0-0.404,0.11-0.728,0.332-0.969
		s0.518-0.361,0.887-0.361C2109.011,2099.108,2109.117,2099.119,2109.249,2099.139L2109.249,2099.139z M2112.316,2100.74h-1.596
		c-0.024-0.08-0.036-0.154-0.036-0.223c0-0.093,0.017-0.186,0.051-0.275h0.535c-0.038-0.209-0.156-0.312-0.353-0.312
		c-0.132,0-0.238,0.056-0.321,0.167c-0.083,0.112-0.124,0.256-0.124,0.43c0,0.183,0.041,0.329,0.12,0.441
		c0.08,0.112,0.185,0.17,0.313,0.17c0.105,0,0.206-0.054,0.305-0.158l0.6,0.721c-0.28,0.22-0.59,0.329-0.933,0.329
		c-0.416,0-0.767-0.14-1.05-0.42c-0.283-0.279-0.425-0.625-0.425-1.038c0-0.41,0.144-0.758,0.43-1.041
		c0.286-0.284,0.637-0.425,1.054-0.425c0.407,0,0.75,0.139,1.026,0.415s0.415,0.617,0.415,1.023
		C2112.328,2100.585,2112.324,2100.65,2112.316,2100.74L2112.316,2100.74z"/>
	<path fill="#FF6600" stroke="#000000" stroke-width="0.0074" stroke-miterlimit="22.9256" d="M2061.257,2120.516
		c-0.467,0.475-1.2,2.661,1.154,1.723c6.45-2.179,18.146-10.177,54.253-8.021c1.778,0.199,1.472-1.11,1.125-1.684
		C2115.294,2108.152,2081.384,2095.125,2061.257,2120.516L2061.257,2120.516z"/>
	<path fill="#FF6600" stroke="#000000" stroke-width="0.0074" stroke-miterlimit="22.9256" d="M2080.384,2073.826
		c-0.431-0.643-1.291-3.209,1.057-2.624c6.567,1.957,8.077,2.53,15.334-0.205c2.994-1.097,2.905,1.902,2.883,2.253
		C2099.534,2078.667,2085.777,2083.709,2080.384,2073.826L2080.384,2073.826z"/>
	<path fill="#FFFFFF" stroke="#000000" stroke-width="0.0074" stroke-miterlimit="22.9256" d="M2077.956,2079.762
		c-0.474-0.594-1.079-2.668,0.727-1.971c4.963,3.371,15.181,3.676,21.725,1.044c3.774-1.526,2.009,1.518,2.053,1.481
		C2100.371,2084.298,2084.29,2088.676,2077.956,2079.762L2077.956,2079.762z"/>
	<path fill="#FFFFFF" stroke="#000000" stroke-width="0.0074" stroke-miterlimit="22.9256" d="M2089.057,2072.153
		c-0.353,0.159-1.175,0.704-1.122,0.014c1.386-2.369,0.125-4.017-3.265-6.364c-1.402-0.757,0.52-0.531,0.967-0.519
		C2090.096,2066.061,2093.87,2069.032,2089.057,2072.153L2089.057,2072.153z"/>
	<path fill="#FFFFFF" stroke="#000000" stroke-width="0.0074" stroke-miterlimit="22.9256" d="M2093.087,2070.586
		c-0.083,0.241-0.276,1.145,0.799,0.567c0.918-0.514,3.972-2.684,3.341-4.651c-0.344-2.01-3.742-2.951-6.494-3.678
		c-2.753-0.728-3.427-1.646-3.541-3.059c-0.115-1.411,1.871-3.645,4.91-2.66c0.895,0.296,0.735-0.103,0.729-0.126
		c-0.146-0.264-0.545-0.713-2.399-0.741c-2.179-0.086-6.007,1.475-5.949,4.64s3.427,4.405,4.889,4.758
		c1.204,0.385,4.286,1.251,4.172,3.251C2093.553,2070.183,2093.252,2070.113,2093.087,2070.586L2093.087,2070.586z"/>
</g>
</svg>
