<?xml version="1.0" encoding="utf-8"?>
<!-- Generator: Adobe Illustrator 16.0.0, SVG Export Plug-In . SVG Version: 6.00 Build 0)  -->
<!DOCTYPE svg PUBLIC "-//W3C//DTD SVG 1.1//EN" "http://www.w3.org/Graphics/SVG/1.1/DTD/svg11.dtd">
<svg version="1.1" id="Layer_1" xmlns="http://www.w3.org/2000/svg" xmlns:xlink="http://www.w3.org/1999/xlink" x="0px" y="0px"
	 width="71.017px" height="69.366px" viewBox="0 0 71.017 69.366" enable-background="new 0 0 71.017 69.366" xml:space="preserve">
<g>
	
		<polygon display="none" fill-rule="evenodd" clip-rule="evenodd" stroke="#FFFFFF" stroke-width="0.0152" stroke-miterlimit="22.9256" points="
		107.408,0 -42.619,0 -42.619,150.026 107.408,150.026 107.408,0 	"/>
	<path fill="#FFFFFF" stroke="#000000" stroke-width="0.0152" stroke-miterlimit="22.9256" d="M0,69.645h5.857
		c3.47,0,5.208,1.367,5.208,4.095c0,1.354-0.592,2.483-1.782,3.377c1.721,0.75,2.583,2.084,2.583,4.007
		c0,1.471-0.508,2.644-1.523,3.519c-0.496,0.415-1.027,0.706-1.592,0.871c-0.568,0.165-1.331,0.25-2.29,0.25H5.551V81.62h0.813
		c0.48,0,0.818-0.061,1.016-0.182c0.198-0.125,0.294-0.338,0.294-0.645c0-0.521-0.399-0.782-1.201-0.782H5.551v-4.297
		c0.882,0,1.322-0.306,1.322-0.911c0-0.56-0.399-0.838-1.193-0.838H4.793v11.798H0V69.645L0,69.645z M20.017,81.345v4.571
		c-0.363,0.065-0.693,0.097-0.992,0.097c-1.769,0-3.249-0.584-4.43-1.75c-1.181-1.165-1.77-2.624-1.77-4.381
		c0-1.709,0.597-3.156,1.79-4.345c1.193-1.189,2.645-1.786,4.354-1.786c1.902,0,3.406,0.557,4.502,1.673
		c1.101,1.112,1.648,2.636,1.648,4.563v5.776h-4.417v-5.458c0-0.621-0.153-1.117-0.456-1.487c-0.302-0.371-0.709-0.556-1.221-0.556
		c-0.463,0-0.867,0.169-1.205,0.508c-0.338,0.338-0.508,0.741-0.508,1.205c0,0.492,0.153,0.891,0.459,1.209
		c0.306,0.314,0.697,0.472,1.169,0.472C19.327,81.656,19.686,81.551,20.017,81.345L20.017,81.345z M34.152,73.873v4.724
		c-0.307-0.173-0.589-0.258-0.838-0.258c-0.802,0-1.205,0.613-1.205,1.838v5.586h-4.418v-6.437c0-1.697,0.463-3.055,1.395-4.067
		c0.927-1.012,2.168-1.516,3.72-1.516C33.153,73.744,33.6,73.788,34.152,73.873L34.152,73.873z M39.868,73.99v11.773H35.45V73.99
		H39.868L39.868,73.99z M37.671,68.733c0.597,0,1.116,0.209,1.552,0.633c0.439,0.419,0.657,0.919,0.657,1.491
		c0,0.617-0.206,1.121-0.621,1.512c-0.411,0.395-0.943,0.592-1.588,0.592c-0.645,0-1.177-0.197-1.588-0.592
		c-0.416-0.391-0.621-0.895-0.621-1.512c0-0.572,0.218-1.072,0.657-1.491C36.555,68.943,37.074,68.733,37.671,68.733L37.671,68.733z
		 M49.844,74.155v4.651c-0.621,0-1.048,0.117-1.282,0.351c-0.23,0.23-0.379,0.689-0.444,1.375c-0.201,2.277-1.084,3.881-2.644,4.817
		c-0.826,0.487-1.999,0.733-3.519,0.733h-0.613v-4.676h0.202c0.709,0,1.213-0.149,1.516-0.443c0.302-0.294,0.479-0.814,0.528-1.552
		c0.061-1.205,0.173-2.052,0.334-2.539c0.162-0.488,0.492-0.972,0.988-1.455c0.862-0.843,2.063-1.262,3.6-1.262H49.844
		L49.844,74.155z M55.217,69.645v4.51H57.2v4.664h-1.983c0,0.935,0.149,1.584,0.443,1.939c0.294,0.351,0.838,0.528,1.625,0.528
		v4.643c-0.229,0.008-0.399,0.012-0.508,0.012c-1,0-1.943-0.234-2.83-0.697s-1.596-1.092-2.132-1.89
		c-0.677-1.016-1.016-2.362-1.016-4.039v-9.669H55.217L55.217,69.645z M65.914,81.345v4.571c-0.363,0.065-0.693,0.097-0.992,0.097
		c-1.77,0-3.249-0.584-4.43-1.75c-1.181-1.165-1.77-2.624-1.77-4.381c0-1.709,0.597-3.156,1.79-4.345s2.645-1.786,4.354-1.786
		c1.902,0,3.405,0.557,4.502,1.673c1.101,1.112,1.648,2.636,1.648,4.563v5.776h-4.417v-5.458c0-0.621-0.153-1.117-0.456-1.487
		s-0.709-0.556-1.221-0.556c-0.463,0-0.867,0.169-1.205,0.508c-0.339,0.338-0.508,0.741-0.508,1.205c0,0.492,0.153,0.891,0.46,1.209
		c0.306,0.314,0.697,0.472,1.169,0.472C65.225,81.656,65.583,81.551,65.914,81.345L65.914,81.345z"/>
	<path fill="#FFFFFF" stroke="#000000" stroke-width="0.0152" stroke-miterlimit="22.9256" d="M-3.416,96.816l2.46,0.063
		c-0.162,1.273-0.604,2.257-1.323,2.952c-0.719,0.693-1.657,1.041-2.814,1.041c-1.177,0-2.163-0.395-2.954-1.183
		c-0.792-0.79-1.189-1.768-1.189-2.937c0-1.177,0.405-2.167,1.213-2.97c0.808-0.802,1.803-1.203,2.987-1.203
		c1.165,0,2.137,0.393,2.917,1.181c0.539,0.543,0.922,1.301,1.146,2.273l-2.518,0.168c-0.28-0.863-0.815-1.295-1.601-1.295
		c-0.501,0-0.915,0.173-1.24,0.521c-0.326,0.346-0.49,0.788-0.49,1.325c0,0.515,0.16,0.944,0.48,1.281
		c0.32,0.338,0.725,0.506,1.214,0.506c0.498,0,0.895-0.148,1.188-0.446C-3.643,97.797-3.469,97.371-3.416,96.816L-3.416,96.816z
		 M2.729,94.786c0.817,0,1.518,0.294,2.103,0.883c0.584,0.588,0.877,1.293,0.877,2.115c0,0.832-0.296,1.542-0.889,2.128
		c-0.59,0.586-1.305,0.879-2.143,0.879c-0.837,0-1.552-0.294-2.146-0.883c-0.594-0.588-0.891-1.297-0.891-2.125
		c0-0.845,0.296-1.556,0.891-2.132C1.126,95.074,1.858,94.786,2.729,94.786L2.729,94.786z M2.672,96.92
		c-0.231,0-0.428,0.083-0.59,0.25c-0.162,0.168-0.243,0.374-0.243,0.616c0,0.241,0.083,0.444,0.247,0.614
		c0.164,0.169,0.359,0.254,0.586,0.254c0.231,0,0.429-0.085,0.592-0.254c0.164-0.17,0.247-0.374,0.247-0.614
		c0-0.243-0.081-0.448-0.243-0.616C3.106,97.003,2.907,96.92,2.672,96.92L2.672,96.92z M9.741,96.186v2.267H8.775v2.222H6.611
		v-4.899c0-0.553,0.095-1.022,0.284-1.412c0.239-0.497,0.603-0.904,1.09-1.218c0.488-0.314,0.995-0.472,1.524-0.472l0.231,0.006
		v2.269c-0.05-0.006-0.087-0.008-0.111-0.008c-0.272,0-0.484,0.091-0.632,0.273s-0.223,0.44-0.223,0.776v0.198H9.741L9.741,96.186z
		 M13.819,96.186v2.267h-0.966v2.222h-2.164v-4.899c0-0.553,0.095-1.022,0.284-1.412c0.239-0.497,0.603-0.904,1.09-1.218
		c0.488-0.314,0.996-0.472,1.525-0.472l0.231,0.006v2.269c-0.05-0.006-0.087-0.008-0.111-0.008c-0.272,0-0.484,0.091-0.632,0.273
		s-0.223,0.44-0.223,0.776v0.198H13.819L13.819,96.186z M20.436,98.141h-3.28c-0.049-0.166-0.075-0.318-0.075-0.458
		c0-0.191,0.036-0.381,0.105-0.566h1.1c-0.077-0.429-0.32-0.642-0.725-0.642c-0.271,0-0.49,0.114-0.659,0.344
		c-0.17,0.231-0.255,0.525-0.255,0.882c0,0.375,0.083,0.677,0.247,0.909c0.164,0.23,0.379,0.347,0.644,0.347
		c0.217,0,0.424-0.109,0.626-0.324l1.232,1.481c-0.575,0.452-1.212,0.677-1.916,0.677c-0.855,0-1.576-0.289-2.158-0.863
		c-0.583-0.575-0.873-1.286-0.873-2.135c0-0.843,0.294-1.558,0.882-2.14c0.588-0.583,1.31-0.873,2.166-0.873
		c0.837,0,1.541,0.284,2.109,0.853c0.568,0.569,0.853,1.27,0.853,2.103C20.459,97.821,20.451,97.955,20.436,98.141L20.436,98.141z
		 M27.001,98.141h-3.279c-0.05-0.166-0.075-0.318-0.075-0.458c0-0.191,0.035-0.381,0.104-0.566h1.1
		c-0.077-0.429-0.32-0.642-0.725-0.642c-0.271,0-0.489,0.114-0.659,0.344c-0.17,0.231-0.255,0.525-0.255,0.882
		c0,0.375,0.083,0.677,0.247,0.909c0.164,0.23,0.379,0.347,0.644,0.347c0.217,0,0.424-0.109,0.626-0.324l1.232,1.481
		c-0.575,0.452-1.213,0.677-1.916,0.677c-0.855,0-1.576-0.289-2.159-0.863c-0.582-0.575-0.873-1.286-0.873-2.135
		c0-0.843,0.294-1.558,0.882-2.14c0.589-0.583,1.31-0.873,2.167-0.873c0.837,0,1.541,0.284,2.109,0.853
		c0.569,0.569,0.853,1.27,0.853,2.103C27.025,97.821,27.017,97.955,27.001,98.141L27.001,98.141z M34.064,98.51v2.239
		c-0.178,0.032-0.34,0.047-0.486,0.047c-0.867,0-1.591-0.286-2.17-0.857s-0.867-1.286-0.867-2.146c0-0.837,0.292-1.546,0.876-2.128
		s1.295-0.875,2.132-0.875c0.932,0,1.669,0.272,2.206,0.819c0.539,0.545,0.808,1.292,0.808,2.235v2.83H34.4V98
		c0-0.304-0.075-0.547-0.223-0.729C34.029,97.09,33.83,97,33.579,97c-0.227,0-0.424,0.083-0.59,0.249s-0.249,0.363-0.249,0.59
		c0,0.241,0.075,0.437,0.225,0.592c0.15,0.154,0.341,0.231,0.572,0.231C33.727,98.662,33.902,98.61,34.064,98.51L34.064,98.51z
		 M42.968,100.674h-2.164v-3.256c0-0.332-0.136-0.498-0.411-0.498c-0.271,0-0.405,0.166-0.405,0.498v3.256h-2.164v-3.217
		c0-0.752,0.249-1.384,0.746-1.9c0.498-0.515,1.108-0.772,1.829-0.772c0.826,0,1.487,0.298,1.984,0.896
		c0.389,0.466,0.584,1.116,0.584,1.949V100.674L42.968,100.674z M47.78,92.777h2.164v4.806c0,0.885-0.231,1.604-0.695,2.161
		c-0.265,0.32-0.604,0.575-1.015,0.762c-0.411,0.189-0.831,0.284-1.264,0.284c-0.861,0-1.586-0.29-2.176-0.869
		c-0.59-0.579-0.884-1.287-0.884-2.128c0-0.813,0.292-1.519,0.879-2.113c0.586-0.594,1.281-0.891,2.083-0.891
		c0.126,0,0.32,0.012,0.578,0.036v2.383C47.273,97.068,47.095,97,46.917,97c-0.223,0-0.415,0.083-0.575,0.247
		s-0.241,0.361-0.241,0.592c0,0.225,0.083,0.417,0.249,0.577c0.166,0.16,0.365,0.241,0.596,0.241c0.555,0,0.833-0.385,0.833-1.153
		V92.777L47.78,92.777z M61.96,100.674h-2.164v-3.112c0-0.241-0.026-0.407-0.075-0.5s-0.14-0.138-0.272-0.138
		c-0.243,0-0.363,0.215-0.363,0.644v3.106h-2.164v-3.112c0-0.241-0.026-0.407-0.079-0.5c-0.051-0.093-0.142-0.138-0.274-0.138
		c-0.239,0-0.357,0.215-0.357,0.644v3.106h-2.164v-3.553c0-0.647,0.217-1.199,0.653-1.653c0.437-0.452,0.964-0.679,1.586-0.679
		c0.64,0,1.214,0.271,1.724,0.812c0.567-0.541,1.134-0.812,1.7-0.812c0.723,0,1.301,0.263,1.735,0.788
		c0.344,0.409,0.516,1.005,0.516,1.787V100.674L61.96,100.674z M65.962,94.786c0.818,0,1.519,0.294,2.103,0.883
		c0.585,0.588,0.877,1.293,0.877,2.115c0,0.832-0.296,1.542-0.889,2.128c-0.59,0.586-1.305,0.879-2.143,0.879
		c-0.837,0-1.552-0.294-2.146-0.883c-0.594-0.588-0.89-1.297-0.89-2.125c0-0.845,0.296-1.556,0.89-2.132
		C64.359,95.074,65.092,94.786,65.962,94.786L65.962,94.786z M65.905,96.92c-0.231,0-0.429,0.083-0.59,0.25
		c-0.162,0.168-0.243,0.374-0.243,0.616c0,0.241,0.083,0.444,0.247,0.614c0.164,0.169,0.359,0.254,0.586,0.254
		c0.231,0,0.429-0.085,0.592-0.254c0.164-0.17,0.247-0.374,0.247-0.614c0-0.243-0.081-0.448-0.243-0.616
		C66.34,97.003,66.14,96.92,65.905,96.92L65.905,96.92z M73.01,94.849v2.314c-0.15-0.085-0.288-0.126-0.411-0.126
		c-0.393,0-0.59,0.3-0.59,0.9v2.737h-2.164v-3.154c0-0.832,0.227-1.497,0.683-1.993c0.455-0.495,1.062-0.742,1.823-0.742
		C72.521,94.786,72.74,94.807,73.01,94.849L73.01,94.849z M79.315,98.141h-3.28c-0.049-0.166-0.075-0.318-0.075-0.458
		c0-0.191,0.036-0.381,0.105-0.566h1.1c-0.077-0.429-0.32-0.642-0.725-0.642c-0.271,0-0.49,0.114-0.66,0.344
		c-0.17,0.231-0.254,0.525-0.254,0.882c0,0.375,0.083,0.677,0.247,0.909c0.164,0.23,0.379,0.347,0.644,0.347
		c0.217,0,0.424-0.109,0.625-0.324l1.232,1.481c-0.575,0.452-1.212,0.677-1.916,0.677c-0.855,0-1.576-0.289-2.158-0.863
		c-0.583-0.575-0.873-1.286-0.873-2.135c0-0.843,0.294-1.558,0.882-2.14c0.588-0.583,1.309-0.873,2.167-0.873
		c0.837,0,1.54,0.284,2.108,0.853c0.569,0.569,0.854,1.27,0.854,2.103C79.339,97.821,79.331,97.955,79.315,98.141L79.315,98.141z"/>
	
		<path fill-rule="evenodd" clip-rule="evenodd" fill="#FF6600" stroke="#000000" stroke-width="0.0152" stroke-miterlimit="22.9256" d="
		M-25.631,138.786c-0.96,0.976-2.468,5.47,2.373,3.54C-10,137.849,14.037,121.41,88.25,125.842c3.655,0.409,3.026-2.283,2.312-3.461
		C85.435,113.374,15.736,86.599-25.631,138.786L-25.631,138.786z"/>
	
		<path fill-rule="evenodd" clip-rule="evenodd" fill="#FF6600" stroke="#000000" stroke-width="0.0152" stroke-miterlimit="22.9256" d="
		M13.682,42.821c-0.886-1.32-2.654-6.595,2.17-5.394c13.5,4.024,16.603,5.202,31.517-0.42c6.155-2.254,5.972,3.909,5.925,4.631
		C53.042,52.771,24.767,63.135,13.682,42.821L13.682,42.821z"/>
	
		<path fill-rule="evenodd" clip-rule="evenodd" fill="#FFFFFF" stroke="#000000" stroke-width="0.0152" stroke-miterlimit="22.9256" d="
		M8.692,55.021c-0.973-1.22-2.219-5.483,1.493-4.051c10.201,6.93,31.201,7.556,44.652,2.146c7.758-3.136,4.13,3.121,4.219,3.046
		C54.762,64.344,21.71,73.343,8.692,55.021L8.692,55.021z"/>
	
		<path fill-rule="evenodd" clip-rule="evenodd" fill="#FFFFFF" stroke="#000000" stroke-width="0.0152" stroke-miterlimit="22.9256" d="
		M31.507,39.384c-0.724,0.326-2.416,1.446-2.307,0.027c2.848-4.87,0.256-8.257-6.709-13.082c-2.884-1.555,1.067-1.092,1.986-1.065
		C33.644,26.861,41.402,32.969,31.507,39.384L31.507,39.384z"/>
	
		<path fill-rule="evenodd" clip-rule="evenodd" fill="#FFFFFF" stroke="#000000" stroke-width="0.0152" stroke-miterlimit="22.9256" d="
		M39.791,36.163c-0.169,0.494-0.567,2.351,1.643,1.165c1.886-1.055,8.162-5.516,6.866-9.56c-0.707-4.131-7.691-6.065-13.348-7.56
		c-5.658-1.495-7.042-3.384-7.278-6.285s3.846-7.491,10.093-5.469c1.838,0.609,1.511-0.21,1.498-0.258
		c-0.299-0.543-1.12-1.466-4.931-1.525c-4.479-0.176-12.347,3.033-12.229,9.538c0.118,6.505,7.042,9.054,10.048,9.779
		c2.475,0.791,8.81,2.571,8.575,6.681C40.749,35.333,40.13,35.19,39.791,36.163L39.791,36.163z"/>
</g>
</svg>
